<svg width="162" height="220" viewBox="0 0 162 220" fill="none" xmlns="http://www.w3.org/2000/svg">
<path d="M99.5182 89.8203L96.8123 61.515L102.074 62.248C105.228 62.6874 108.308 63.5551 111.227 64.8271C117.844 67.7098 123.408 72.5668 127.158 78.7334L128.141 80.3498C130.074 83.5291 131.432 87.0242 132.152 90.6748L132.418 92.021C135.045 105.328 128.382 118.736 116.19 124.681C110.555 127.428 104.198 128.335 98.0199 127.271L73.5732 123.065C71.5733 122.721 70.3915 125.23 71.9304 126.553L101.59 152.047C105.515 155.421 110.797 156.754 115.853 155.647C140.687 150.21 158.543 128.439 159.015 103.02L159.167 94.8604C157.975 65.0288 136.325 39.9797 106.981 34.4797L96.5068 32.5166L96.2266 5.91883C96.2077 4.12706 94.0234 3.26232 92.7831 4.55562L50.6313 48.512C49.8443 49.3327 49.8989 50.6435 50.7514 51.3959L96.2038 91.5101C97.5638 92.7103 99.6908 91.6258 99.5182 89.8203Z" fill="white"/>
<path d="M62.9083 128.658L65.2373 157.611L59.9839 156.82C56.8347 156.346 53.7649 155.445 50.8595 154.141C44.275 151.185 38.7648 146.268 35.0829 140.06L34.1179 138.433C32.2196 135.233 30.9001 131.723 30.2198 128.065L29.9689 126.715C27.4889 113.38 34.298 100.046 46.5549 94.236C52.22 91.5507 58.586 90.7143 64.7525 91.8452L89.1515 96.32C91.1475 96.686 92.3569 94.1901 90.8326 92.8505L61.4553 67.0321C57.5677 63.6154 52.3005 62.2242 47.2328 63.2755C22.3403 68.4394 4.24592 90.013 3.49416 115.424L3.25282 123.582C4.11695 153.425 25.4899 178.711 54.7721 184.533L65.2241 186.611L65.2119 213.21C65.2111 215.002 67.3858 215.891 68.6401 214.611L111.284 171.109C112.076 170.302 112.041 168.999 111.207 168.235L66.2534 127.023C64.9136 125.795 62.7625 126.846 62.9083 128.658Z" fill="white"/>
</svg>
